<?xml version="1.0" encoding="UTF-8" standalone="no"?>
<!-- Created with Inkscape (http://www.inkscape.org/) -->

<svg
   width="256"
   height="256"
   viewBox="0 0 67.733332 67.733335"
   version="1.1"
   id="svg5"
   inkscape:version="1.1.2 (0a00cf5339, 2022-02-04)"
   sodipodi:docname="skull_and_crossbones_noImage.svg"
   xmlns:inkscape="http://www.inkscape.org/namespaces/inkscape"
   xmlns:sodipodi="http://sodipodi.sourceforge.net/DTD/sodipodi-0.dtd"
   xmlns="http://www.w3.org/2000/svg"
   xmlns:svg="http://www.w3.org/2000/svg">
  <sodipodi:namedview
     id="namedview7"
     pagecolor="#505050"
     bordercolor="#ffffff"
     borderopacity="1"
     inkscape:pageshadow="0"
     inkscape:pageopacity="0"
     inkscape:pagecheckerboard="1"
     inkscape:document-units="mm"
     showgrid="false"
     units="px"
     width="256px"
     showguides="true"
     inkscape:guide-bbox="true"
     inkscape:zoom="2.8456166"
     inkscape:cx="128.09175"
     inkscape:cy="123.52332"
     inkscape:window-width="1850"
     inkscape:window-height="1016"
     inkscape:window-x="0"
     inkscape:window-y="0"
     inkscape:window-maximized="1"
     inkscape:current-layer="layer2">
    <sodipodi:guide
       position="33.866667,33.866667"
       orientation="-1,0"
       id="guide197"
       inkscape:label="mp"
       inkscape:locked="false"
       inkscape:color="rgb(0,0,255)" />
  </sodipodi:namedview>
  <defs
     id="defs2" />
  <g
     inkscape:groupmode="layer"
     id="layer2"
     inkscape:label="svgLayer">
    <path
       id="path5160"
       style="display:inline;fill:none;stroke:#000000;stroke-width:0.264583px;stroke-linecap:butt;stroke-linejoin:miter;stroke-opacity:1"
       d="m 50.733813,27.129835 c 0,0 0.895698,1.431787 1.147563,2.302698 0.338303,1.169798 0.350953,2.307867 0.129346,3.430524 -0.294198,1.490405 -0.795228,2.772388 -1.862398,3.853594 -0.712919,0.722294 -1.756976,1.108419 -2.753928,1.298281 -1.637009,0.311755 -3.347109,-0.129145 -5.015986,-0.02669 -0.297948,0.01829 -0.619091,-0.01489 -0.888207,0.114273 -0.335637,0.161095 -0.667957,0.428624 -0.804126,0.775124 -0.306223,0.779225 0.106646,1.671269 0.137756,2.507927 0.02039,0.548325 0.03203,1.645801 0.03203,1.645801 0,0 0.03348,0.789703 -0.07941,1.142191 -0.12434,0.388274 -0.333629,0.682073 -0.621591,0.910272 -0.16171,0.128149 -0.374,0.18848 -0.577419,0.223025 -0.301932,0.05128 -1.169555,-0.0047 -1.169555,-0.0047 0,0 0.03521,-1.233103 -0.124106,-1.657894 -0.127449,-0.339817 -0.341695,-0.445004 -0.593345,-0.52535 -0.427275,-0.136419 -0.919466,-0.01826 -1.337937,0.143163 -0.183384,0.07074 -0.443102,0.153571 -0.476567,0.347256 -0.136313,0.78894 -0.07413,2.555755 -0.07413,2.555755 H 33.87107 m 16.862743,-19.03525 c 0,0 2.678783,-7.563427 2.099688,-11.375618 C 52.405623,12.937488 50.760118,10.308298 48.856091,8.1889292 46.644032,5.7266899 43.700094,3.8434061 40.610335,2.6563021 38.49184,1.8423636 33.871075,1.6882988 33.871075,1.6882988 M 17.003928,27.129835 c 0,0 -0.895698,1.431787 -1.147563,2.302698 -0.338303,1.169798 -0.350953,2.307867 -0.129346,3.430524 0.294198,1.490405 0.795228,2.772388 1.862398,3.853594 0.712919,0.722294 1.756976,1.108419 2.753928,1.298281 1.637009,0.311755 3.347109,-0.129145 5.015986,-0.02669 0.297948,0.01829 0.619091,-0.01489 0.888207,0.114273 0.335637,0.161095 0.667957,0.428624 0.804126,0.775124 0.306223,0.779225 -0.106646,1.671269 -0.137756,2.507927 -0.02039,0.548325 -0.03203,1.645801 -0.03203,1.645801 0,0 -0.03348,0.789703 0.07941,1.142191 0.12434,0.388274 0.333629,0.682073 0.621591,0.910272 0.16171,0.128149 0.374,0.18848 0.577419,0.223025 0.301932,0.05128 1.169555,-0.0047 1.169555,-0.0047 0,0 -0.03521,-1.233103 0.124106,-1.657894 0.127449,-0.339817 0.341695,-0.445004 0.593345,-0.52535 0.427275,-0.136419 0.919466,-0.01826 1.337937,0.143163 0.183384,0.07074 0.443102,0.153571 0.476567,0.347256 0.136313,0.78894 0.07413,2.555755 0.07413,2.555755 h 1.930733 M 17.003928,27.129835 c 0,0 -2.678783,-7.563427 -2.099688,-11.375618 0.427878,-2.816729 2.073383,-5.445919 3.97741,-7.5652878 2.212059,-2.4622393 5.155997,-4.3455231 8.245756,-5.5326271 2.118495,-0.8139385 6.73926,-0.9680033 6.73926,-0.9680033" />
    <path
       style="display:inline;fill:none;stroke:#000000;stroke-width:0.264583px;stroke-linecap:butt;stroke-linejoin:miter;stroke-opacity:1"
       d="m 19.890058,29.534257 c -0.01758,-1.071013 0.114322,-2.220753 0.661841,-3.141406 0.359534,-0.604557 0.930692,-0.961329 1.53107,-1.327799 0.55402,-0.338173 1.161279,-0.524091 1.794287,-0.667621 1.179737,-0.267497 2.35435,-0.328588 3.524272,-0.02099 0.735094,0.193274 1.401974,0.427742 2.025987,0.861707 0.460981,0.320586 1.075932,0.675398 1.323917,1.179166 0.342484,0.695739 0.153919,1.375576 0.07364,2.325233 -0.05441,0.643705 -0.292214,1.311246 -0.575288,1.891922 -0.241188,0.494753 -0.892856,1.176355 -1.300638,1.546036 -0.578677,0.524609 -0.801957,0.791436 -1.476987,1.184393 -0.618902,0.360283 -1.298942,0.581373 -1.994865,0.750291 -0.585448,0.142104 -1.188266,0.07522 -1.783597,-0.01711 C 23.218218,34.024344 22.73775,33.97326 22.315298,33.74293 21.958205,33.548236 21.651831,33.266557 21.362527,32.980682 20.976581,32.599311 20.563,32.212134 20.330569,31.721855 20.011925,31.049725 19.902265,30.277994 19.890058,29.534257 Z"
       id="path6259"
       sodipodi:nodetypes="sssssssssssssssss" />
    <path
       style="display:inline;fill:none;stroke:#000000;stroke-width:0.264583px;stroke-linecap:butt;stroke-linejoin:miter;stroke-opacity:1"
       d="m 47.908956,29.534257 c 0.01758,-1.071013 -0.114322,-2.220753 -0.661841,-3.141406 -0.359534,-0.604557 -0.930692,-0.961329 -1.53107,-1.327799 -0.55402,-0.338173 -1.161279,-0.524091 -1.794287,-0.667621 -1.179737,-0.267497 -2.35435,-0.328588 -3.524272,-0.02099 -0.735094,0.193274 -1.401974,0.427742 -2.025987,0.861707 -0.460981,0.320586 -1.075932,0.675398 -1.323917,1.179166 -0.342484,0.695739 -0.153919,1.375576 -0.07364,2.325233 0.05441,0.643705 0.292214,1.311246 0.575288,1.891922 0.241188,0.494753 0.892856,1.176355 1.300638,1.546036 0.578677,0.524609 0.801957,0.791436 1.476987,1.184393 0.618902,0.360283 1.298942,0.581373 1.994865,0.750291 0.585448,0.142104 1.188266,0.07522 1.783597,-0.01711 0.475479,-0.07373 0.955947,-0.124819 1.378399,-0.355149 0.357093,-0.194694 0.663467,-0.476373 0.952771,-0.762248 0.385946,-0.381371 0.799527,-0.768548 1.031958,-1.258827 0.318644,-0.67213 0.428304,-1.443861 0.440511,-2.187598 z"
       id="path7610"
       sodipodi:nodetypes="sssssssssssssssss" />
    <path
       id="path8778"
       style="display:inline;fill:none;stroke:#000000;stroke-width:0.264583px;stroke-linecap:butt;stroke-linejoin:miter;stroke-opacity:1"
       d="m 33.937772,31.870179 c 0,0 1.108751,0.760217 1.529286,1.273161 0.31819,0.38811 0.56249,0.84627 0.717746,1.323523 0.242738,0.74617 0.36516,1.550741 0.310094,2.333466 -0.05674,0.806471 -0.398467,2.255706 -0.398467,2.255706 0,0 -0.783758,-0.877823 -1.186687,-1.23214 -0.275664,-0.242407 -0.971972,-0.517722 -0.971972,-0.517722 m -0.07111,-5.435994 c 0,0 -1.108751,0.760217 -1.529286,1.273161 -0.31819,0.38811 -0.56249,0.84627 -0.717746,1.323523 -0.242738,0.74617 -0.36516,1.550741 -0.310094,2.333466 0.05674,0.806471 0.398467,2.255706 0.398467,2.255706 0,0 0.783758,-0.877823 1.186687,-1.23214 0.275664,-0.242407 0.971972,-0.517722 0.971972,-0.517722" />
    <path
       style="display:inline;fill:#000000;stroke:#000000;stroke-width:0.153235;stroke-opacity:1"
       d="m 121.28292,170.58906 c -0.003,-3.70525 -0.16908,-5.69265 -0.53444,-6.39919 -0.18568,-0.35908 -0.51983,-0.60917 -1.26585,-0.94742 -3.50772,-1.59048 -6.91725,-1.31605 -8.24692,0.6638 -0.596,0.88744 -0.81139,1.95064 -0.93355,4.60828 l -0.0966,2.10114 -0.69059,0.10355 c -1.16443,0.17461 -3.28407,-0.0336 -4.15473,-0.40817 -0.92688,-0.39873 -1.96634,-1.48454 -2.52949,-2.64231 -0.62233,-1.27942 -0.73349,-2.61534 -0.62082,-7.46136 0.0888,-3.82176 0.15726,-4.69553 0.54774,-6.99599 0.78415,-4.61972 0.55581,-6.31804 -1.08536,-8.07246 -0.58903,-0.62967 -1.2518,-1.14371 -1.896629,-1.47101 -0.946446,-0.48039 -1.104192,-0.50956 -3.493483,-0.646 -2.423742,-0.13841 -4.843937,-0.0587 -10.164037,0.33476 -6.525772,0.48262 -11.301314,-0.23654 -15.445369,-2.32596 -4.071352,-2.05276 -7.430046,-6.33694 -9.326751,-11.89674 -2.157903,-6.32544 -2.421398,-12.77 -0.7371,-18.02803 0.471887,-1.47314 2.065781,-4.75599 3.393818,-6.99005 0.538913,-0.90658 0.681294,-1.2876 0.658504,-1.76221 -0.01599,-0.33304 -0.457911,-1.91569 -0.982041,-3.516999 -3.640726,-11.123046 -6.249784,-22.756253 -6.919891,-30.854248 -0.241396,-2.917175 -0.104274,-7.094189 0.305079,-9.293369 1.149306,-6.174452 3.778084,-12.32833 7.942717,-18.593626 7.380685,-11.103541 17.620053,-19.964595 30.305145,-26.225789 3.243982,-1.601188 6.988768,-3.179466 9.081448,-3.827466 4.09842,-1.269083 10.84744,-2.2579449 19.49691,-2.8566745 3.23756,-0.2241085 4.19716,-0.2344909 6.9722,-0.075436 10.84144,0.6213877 18.46185,1.8932 23.55661,3.9314905 10.42998,4.172793 19.77427,10.229782 27.17038,17.611908 10.25598,10.236582 16.67212,22.095574 17.7012,32.717208 0.74358,7.674899 -2.00509,22.318389 -7.18361,38.270486 -0.49931,1.538095 -0.84975,2.796545 -0.77876,2.796545 0.071,0 0.0898,0.10236 0.0418,0.22747 -0.0486,0.12658 0.31933,0.92512 0.82955,1.80051 2.59524,4.45275 3.57263,6.99692 4.10697,10.69054 0.30559,2.11246 0.22838,6.03396 -0.16142,8.19808 -1.06357,5.9048 -3.11365,10.60466 -6.07865,13.9354 -1.82305,2.04793 -3.54276,3.29898 -5.88188,4.27896 -4.21686,1.76666 -8.11919,2.2038 -15.39647,1.72473 -6.13837,-0.4041 -6.56391,-0.41723 -9.04088,-0.27888 -2.65418,0.14824 -3.26197,0.33034 -4.68268,1.40299 -2.18636,1.65071 -2.68455,4.02599 -1.81728,8.66442 0.34614,1.85129 0.41645,2.75432 0.51301,6.58912 0.13604,5.40252 0.0476,6.63326 -0.57037,7.93353 -1.00181,2.10808 -2.27918,2.9798 -4.58532,3.12922 -0.75539,0.0489 -1.68669,0.042 -2.06955,-0.0154 l -0.69612,-0.10438 -0.10371,-1.94707 c -0.13525,-2.53921 -0.33005,-3.62497 -0.80868,-4.50739 -0.94956,-1.75061 -3.37314,-2.38917 -6.26293,-1.65013 -1.54251,0.39447 -3.03379,1.0901 -3.34051,1.55821 -0.39172,0.59784 -0.56655,2.44676 -0.5877,6.21496 l -0.02,3.56272 h -6.71509 -6.7151 l -0.003,-3.25625 z m -0.71064,-22.90866 c 3.30956,-3.67448 4.59325,-4.77259 6.70996,-5.7399 l 0.86321,-0.39448 1.3587,0.64779 c 1.63473,0.7794 2.46023,1.47867 5.12137,4.33823 1.11811,1.20148 2.06366,2.15377 2.10122,2.1162 0.12588,-0.12588 0.94638,-3.96936 1.35973,-6.36938 0.88153,-5.11836 0.339,-10.04574 -1.54586,-14.0398 -1.38136,-2.92714 -2.69191,-4.38897 -6.42527,-7.16698 -1.43209,-1.06563 -1.68735,-1.17061 -1.84532,-0.75894 -0.0876,0.22832 -0.11861,0.22454 -0.31353,-0.0383 -0.26093,-0.35186 -0.27612,-0.34406 -2.34375,1.20246 -4.09619,3.06384 -5.93903,5.70512 -7.0829,10.15173 -1.14076,4.43453 -1.02995,7.92284 0.47115,14.83229 0.26927,1.23939 0.52335,2.25343 0.56463,2.25343 0.0413,0 0.49428,-0.46545 1.00666,-1.03434 z M 96.780776,129.39829 c 3.231374,-0.7636 6.545204,-2.16285 8.748784,-3.69413 2.67562,-1.85931 7.01136,-6.1314 8.54881,-8.4233 1.50949,-2.25024 2.61642,-5.47245 2.99342,-8.71374 0.64749,-5.56676 0.60845,-6.86601 -0.26365,-8.775106 -0.61036,-1.336122 -2.12971,-2.802463 -4.6157,-4.454669 -2.82188,-1.875439 -5.364,-2.987461 -8.8236,-3.85978 -3.75784,-0.947519 -8.389204,-0.886136 -13.189937,0.174818 -3.521775,0.778306 -5.790048,1.715945 -8.493713,3.511057 -2.828341,1.877889 -4.018866,3.154229 -5.147102,5.51811 -1.313642,2.75235 -1.86566,5.71302 -1.884544,10.10748 -0.01806,4.20315 0.500688,7.00542 1.758723,9.50059 0.684834,1.35828 1.522594,2.40284 3.494329,4.3569 3.293706,3.26417 4.567482,3.96743 8.339929,4.60449 4.023623,0.67949 6.128376,0.71581 8.534251,0.14728 z m 70.322184,-0.006 c 4.43226,-0.65931 5.69405,-1.28872 9.02004,-4.49941 2.66929,-2.57675 3.73583,-4.14392 4.52631,-6.65097 0.72932,-2.31308 0.9204,-3.80293 0.92636,-7.22284 0.008,-4.77763 -0.50387,-7.48134 -1.99841,-10.54913 -0.71916,-1.476201 -1.02431,-1.91672 -2.02516,-2.923489 -1.97389,-1.985578 -5.34017,-4.038266 -8.17842,-4.98703 -3.5801,-1.196748 -6.6749,-1.691866 -10.54542,-1.687099 -3.49035,0.0043 -5.19535,0.27818 -8.49776,1.36503 -2.48683,0.818433 -4.08613,1.615396 -6.44173,3.210047 -5.01869,3.397449 -5.64643,4.983921 -4.82589,12.196221 0.77217,6.78713 2.54224,10.06271 8.21412,15.20055 2.40962,2.18274 3.07102,2.69319 4.85723,3.74869 2.24545,1.32688 6.33461,2.76607 8.86058,3.11851 1.28435,0.1792 3.55624,0.0605 6.10815,-0.31908 z"
       id="path8916"
       transform="scale(0.26458333)" />
    <path
       style="display:inline;fill:#000000;fill-opacity:1;stroke:#000000;stroke-width:0.264583px;stroke-linecap:butt;stroke-linejoin:miter;stroke-opacity:1"
       d="m 19.025661,44.968651 31.635265,10.038038 c 0,0 1.615381,-0.817862 2.489761,-1.01401 0.984491,-0.220849 2.077567,-0.519204 3.022365,-0.165153 1.094192,0.410034 2.340949,1.288666 2.512552,2.444493 0.08299,0.558957 -0.357574,1.158267 -0.819203,1.484178 -0.257691,0.18193 -0.933775,0.153601 -0.933775,0.153601 l -0.501389,0.769562 c 0,0 0.43298,0.747943 0.568807,1.150481 0.152485,0.451908 0.139213,0.773133 -0.04506,1.213038 -0.236595,0.564816 -0.572585,0.891437 -1.118783,1.168317 -0.732202,0.37117 -1.424925,0.564027 -2.234725,0.429453 C 52.753331,62.499703 52.015618,62.025615 51.331308,61.505101 50.858119,61.145174 50.498011,60.691176 50.1339,60.221199 49.763341,59.742898 49.004136,58.759907 49.004136,58.759907 L 17.668123,48.770894 c 0,0 -1.109383,0.431925 -1.68492,0.577874 -1.114482,0.28262 -2.256553,0.674056 -3.401684,0.571005 -0.80665,-0.07259 -1.654447,-0.316396 -2.285896,-0.823571 -0.5660501,-0.454647 -0.9624576,-1.100511 -0.9086846,-1.824546 0.036096,-0.486022 0.3501479,-0.855583 0.7004496,-1.124455 0.351131,-0.269508 1.270324,-0.38681 1.270324,-0.38681 l 0.146732,-0.762381 c 0,0 -0.656386,-0.686201 -0.814519,-1.119847 -0.135636,-0.371952 -0.249391,-0.825224 -0.08367,-1.184783 0.213692,-0.463639 0.775233,-0.681576 1.231612,-0.910362 0.591651,-0.296599 1.239253,-0.5861 1.900959,-0.573191 0.533304,0.0104 1.041201,0.272327 1.512901,0.521367 0.666775,0.352032 1.30424,0.795403 1.814793,1.350246 0.393626,0.427772 0.921289,1.480743 0.921289,1.480743 z"
       id="path4785"
       sodipodi:nodetypes="ccssssccssssssccsssssccsssssscc" />
    <path
       style="fill:#000000;fill-opacity:1;stroke:#000000;stroke-width:0.264583px;stroke-linecap:butt;stroke-linejoin:miter;stroke-opacity:0.966495"
       d="M 16.755185,55.038717 49.121832,44.639854 c 0,0 1.717764,-2.5249 3.043518,-3.118091 1.031025,-0.461318 2.281121,-0.386769 3.385304,-0.148847 0.435722,0.09389 0.899084,0.268716 1.193144,0.603674 0.424026,0.483 0.777746,1.190849 0.640365,1.818714 -0.106954,0.488806 -1.044294,1.078325 -1.044294,1.078325 0,0 1.163227,0.724803 1.520428,1.283695 0.346142,0.541589 0.385622,1.255446 0.253086,1.884387 -0.133142,0.631811 -0.631558,1.044602 -1.212173,1.327089 -0.720524,0.350557 -1.595311,0.291524 -2.388601,0.178661 -0.866698,-0.123307 -2.27683,-0.762686 -2.27683,-0.762686 l -33.45237,10.171599 c 0,0 -1.389402,1.502574 -2.156992,2.179643 -0.651683,0.57483 -1.186745,1.221822 -2.037642,1.398155 -0.721878,0.149595 -2.136833,-0.130351 -2.136833,-0.130351 0,0 -1.233641,-0.273151 -1.554754,-0.750744 -0.282736,-0.420515 -0.216329,-1.025044 -0.09558,-1.517174 0.143434,-0.584589 0.934805,-1.54499 0.934805,-1.54499 0,0 -0.686631,-0.393513 -1.324587,-0.972715 -0.4278126,-0.388412 -0.6381713,-1.538596 -0.378225,-2.054654 0.278843,-0.553573 0.725145,-0.925991 1.297731,-1.163356 0.62476,-0.258993 1.241978,-0.302767 1.918111,-0.318476 0.659596,-0.01532 1.363763,0.314515 1.997722,0.497268 0.559679,0.161341 1.50802,0.459737 1.50802,0.459737 z"
       id="path8428"
       sodipodi:nodetypes="ccsssscssssccsscsscsssssc" />
  </g>
</svg>
